# xmcd CD database file
#
# Track frame offsets:
#	150
#	6782
#	29857
#	34135
#	56225
#	74010
#	78442
#	80772
#	86670
#	103387
#	122950
#	141145
#	156565
#	177692
#	193180
#
# Disc length: 2641 seconds
#
# Revision: 0
# Processed by: cddbd v1.5.1PL0 Copyright (c) Steve Scherf et al.
# Submitted via: CDex 1.51
#
DISCID=ec0a4f0f
DTITLE=David T. Clydesdale - From Heaven's Throne
DYEAR=1900
DGENRE=Christmas
TTITLE0=Sing! Choirs Of Angels
TTITLE1=Go Change The World! (Opener)
TTITLE2=From Heaven's Throne
TTITLE3=Thrust His Heart
TTITLE4=Worthy Of More
TTITLE5=Go Change The World (Manger Scene)
TTITLE6=Trust His Heart (Reprise)
TTITLE7=Go Change The World! ("Glory, Glory!" Set-Up)
TTITLE8=Glory, Glory!
TTITLE9=This Is The Way
TTITLE10=King Jesus Is His Name!
TTITLE11=Praise The Lord! Ye Heavens Adore Him
TTITLE12=Let Heaven And Nature Sing!
TTITLE13=Go Change The World! (Finale)
TTITLE14=Go Change The World! (Benedition-Closing)
EXTD=
EXTT0=
EXTT1=
EXTT2=
EXTT3=
EXTT4=
EXTT5=
EXTT6=
EXTT7=
EXTT8=
EXTT9=
EXTT10=
EXTT11=
EXTT12=
EXTT13=
EXTT14=
PLAYORDER=
